<svg xmlns="http://www.w3.org/2000/svg" width="512" height="512" viewBox="0 0 512 512">
  <defs>
    <linearGradient id="bg" x1="0%" x2="100%" y1="0%" y2="100%">
      <stop offset="0%" stop-color="#020617"/>
      <stop offset="100%" stop-color="#0f172a"/>
    </linearGradient>
    <linearGradient id="accent" x1="0%" x2="100%" y1="0%" y2="100%">
      <stop offset="0%" stop-color="#67e8f9"/>
      <stop offset="100%" stop-color="#d6a55c"/>
    </linearGradient>
  </defs>
  <rect width="512" height="512" rx="144" fill="url(#bg)"/>
  <rect x="72" y="72" width="368" height="368" rx="96" fill="rgba(30,41,59,0.65)" stroke="rgba(214,165,92,0.3)" stroke-width="8"/>
  <path d="M146 334c58-20 98-46 134-86 30-35 50-72 61-114h36c-6 60-27 114-63 158-41 51-93 87-168 116z" fill="url(#accent)"/>
  <path d="M194 154h48v204h-48zm88 0h50c54 0 90 30 90 76 0 54-44 88-104 88h-36v58h-50zm50 117h24c27 0 43-13 43-34s-14-32-40-32h-27z" fill="#f8fafc"/>
</svg>
